# xmcd
#
# Track frame offsets:
#	150
#	11426
#	29299
#	48456
#	54050
#	69148
#	82122
#	95358
#	120779
#	128389
#	157500
#	173498
#	187900
#	216712
#	231360
#	249343
#	271637
#	280510
#	314294
#
# Disc length: 4395 seconds
#
# Revision: 0
# Processed by: cddbd v1.5.2PL0 Copyright (c) Steve Scherf et al.
# Submitted via: dBpowerAMP V4.0
#
DISCID=dc112913
DTITLE=Big Dave McLean - Acoustic Blues
DYEAR=2008
DGENRE=Blues
TTITLE0=Sometimes
TTITLE1=Why do Girls Do that
TTITLE2=Atlanta Moan
TTITLE3=Police and High Sheriff
TTITLE4=Someday Baby
TTITLE5=Don't Shy Away
TTITLE6=Right from the Start
TTITLE7=Michael Henderson
TTITLE8=Mop
TTITLE9=Louisiana Blues/Forty Four (medley)
TTITLE10=Comin' Home to you
TTITLE11=Paper Angel
TTITLE12=Up On Waverly
TTITLE13=Good Morning Little School Girl
TTITLE14=Kanadiana
TTITLE15=Oh Baby...Yah
TTITLE16=Stop Ash'n on the Dog
TTITLE17=The Bottoms Where I got Em
TTITLE18=Needed Time
EXTD=
EXTT0=
EXTT1=
EXTT2=
EXTT3=
EXTT4=
EXTT5=
EXTT6=
EXTT7=
EXTT8=
EXTT9=
EXTT10=
EXTT11=
EXTT12=
EXTT13=
EXTT14=
EXTT15=
EXTT16=
EXTT17=
EXTT18=
PLAYORDER=
